<svg id="login_logo" xmlns="http://www.w3.org/2000/svg" width="450" height="86" viewBox="0 0 450 86">
  <metadata><?xpacket begin="﻿" id="W5M0MpCehiHzreSzNTczkc9d"?>
<x:xmpmeta xmlns:x="adobe:ns:meta/" x:xmptk="Adobe XMP Core 5.6-c142 79.160924, 2017/07/13-01:06:39        ">
   <rdf:RDF xmlns:rdf="http://www.w3.org/1999/02/22-rdf-syntax-ns#">
      <rdf:Description rdf:about=""/>
   </rdf:RDF>
</x:xmpmeta>
                                                                                                    
                                                                                                    
                                                                                                    
                                                                                                    
                                                                                                    
                                                                                                    
                                                                                                    
                                                                                                    
                                                                                                    
                                                                                                    
                                                                                                    
                                                                                                    
                                                                                                    
                                                                                                    
                                                                                                    
                                                                                                    
                                                                                                    
                                                                                                    
                                                                                                    
                                                                                                    
                           
<?xpacket end="w"?></metadata>
<defs>
    <style>
      .cls-1, .cls-2 {
        fill: #fff;
      }

      .cls-1 {
        fill-rule: evenodd;
      }

      .cls-2 {
        font-size: 160px;
        text-anchor: end;
        font-family: FZZhunYuan-M02S;
      }
    </style>
  </defs>
  <g id="组_2" data-name="组 2">
    <path id="system_logo" class="cls-1" d="M430,1102.3a11.1,11.1,0,0,0-21.289-4.43,11.1,11.1,0,0,0-20.925,1.11h-8.876v-11.79a14.277,14.277,0,0,1,14.255-14.27h3.771a14.278,14.278,0,0,1,14.255,14.27v0.22H417.1v-0.22A20.2,20.2,0,0,0,396.937,1067h-3.771A20.2,20.2,0,0,0,373,1087.19v45.62A20.2,20.2,0,0,0,393.166,1153h3.771a20.2,20.2,0,0,0,20.166-20.19v-0.22h-5.911v0.22a14.278,14.278,0,0,1-14.255,14.27h-3.771a14.277,14.277,0,0,1-14.255-14.27V1104.9h8.794a11.1,11.1,0,0,0,20.919,1.63,11.149,11.149,0,0,0,7.787,6.6v8.34l-9.277-.03h-0.45a7.836,7.836,0,0,0,7.8,7.86h0.027a7.831,7.831,0,0,0,7.769-6.91h0.04v-0.55c0.006-.12.018-0.23,0.018-0.35h-0.018v-8.62A11.134,11.134,0,0,0,430,1102.3Zm-11.108,5.2a5.2,5.2,0,1,1,5.2-5.2A5.2,5.2,0,0,1,418.893,1107.5Zm-20.451-.2a5.205,5.205,0,1,1,5.2-5.2A5.209,5.209,0,0,1,398.442,1107.3Z" transform="translate(-373 -1067)"/>
    <g id="组_3" data-name="组 3">
      <text id="币大师_交易所管理系统" data-name="币大师 交易所管理系统" class="cls-2" transform="translate(456.074 57.396) scale(0.227 0.227)">币大师 交易所管理系统</text>
    </g>
  </g>
</svg>
